<?xml version="1.0" encoding="utf-8"?>
<!-- Svg Vector Icons : http://www.onlinewebfonts.com/icon -->
<!DOCTYPE svg PUBLIC "-//W3C//DTD SVG 1.1//EN" "http://www.w3.org/Graphics/SVG/1.1/DTD/svg11.dtd">
<svg version="1.1" xmlns="http://www.w3.org/2000/svg" xmlns:xlink="http://www.w3.org/1999/xlink" x="0px" y="0px" viewBox="0 0 1000 1000" enable-background="new 0 0 1000 1000" xml:space="preserve">
<metadata> Svg Vector Icons : http://www.onlinewebfonts.com/icon </metadata>
<g class="enterprise-icon"><path class="enterprise-icon" d="M965.1,972.2H34.9C21.2,972.2,10,961,10,947.2c0-13.7,11.2-24.8,24.9-24.8h930.2c13.8,0,24.9,11.1,24.9,24.8C990,961,978.9,972.2,965.1,972.2L965.1,972.2z"/><path class="enterprise-icon" d="M301.3,259.8h-92.2c-13.7,0-24.9-11.1-24.9-24.9c0-13.8,11.1-24.9,24.9-24.9h92.2c13.8,0,24.9,11.1,24.9,24.9C326.2,248.7,315.1,259.8,301.3,259.8L301.3,259.8z"/><path class="enterprise-icon" d="M501.1,259.8H409c-13.7,0-24.9-11.1-24.9-24.9c0-13.8,11.1-24.9,24.9-24.9h92.2c13.7,0,24.9,11.1,24.9,24.9C526,248.7,514.9,259.8,501.1,259.8L501.1,259.8z"/><path class="enterprise-icon" d="M720.8,520.9v-92.2c0-13.7,11.2-24.9,24.9-24.9c13.8,0,24.9,11.2,24.9,24.9v92.2c0,13.7-11.1,24.9-24.9,24.9C732,545.8,720.8,534.7,720.8,520.9L720.8,520.9z"/><path class="enterprise-icon" d="M720.8,770.5v-92.2c0-13.7,11.2-24.9,24.9-24.9c13.8,0,24.9,11.2,24.9,24.9v92.2c0,13.7-11.1,24.9-24.9,24.9C732,795.4,720.8,784.2,720.8,770.5L720.8,770.5z"/><path class="enterprise-icon" d="M301.3,481.5h-92.2c-13.7,0-24.9-11.1-24.9-24.9c0-13.8,11.1-24.9,24.9-24.9h92.2c13.8,0,24.9,11.1,24.9,24.9C326.2,470.4,315.1,481.5,301.3,481.5L301.3,481.5z"/><path d="M501.1,481.5H409c-13.7,0-24.9-11.1-24.9-24.9c0-13.8,11.1-24.9,24.9-24.9h92.2c13.7,0,24.9,11.1,24.9,24.9C526,470.4,514.9,481.5,501.1,481.5L501.1,481.5z"/><path d="M301.3,703.2h-92.2c-13.7,0-24.9-11.1-24.9-24.9c0-13.7,11.1-24.9,24.9-24.9h92.2c13.8,0,24.9,11.1,24.9,24.9C326.2,692.1,315.1,703.2,301.3,703.2L301.3,703.2z"/><path d="M501.1,703.2H409c-13.7,0-24.9-11.1-24.9-24.9c0-13.7,11.1-24.9,24.9-24.9h92.2c13.7,0,24.9,11.1,24.9,24.9C526,692.1,514.9,703.2,501.1,703.2L501.1,703.2z"/><path d="M68.4,947.3V102.1c0-41,33.4-74.3,74.3-74.3h423.1c41,0,74.4,33.3,74.4,74.3v828.5c0,13.8-11.1,24.9-24.8,24.9c-13.8,0-24.9-11.1-24.9-24.9V102.1c0-13.5-11-24.6-24.6-24.6H142.7c-13.6,0-24.5,11-24.5,24.6v845.2H68.4z"/><path d="M618.8,259.8H848c41,0,74.3,33.3,74.3,74.3v600.2c0,13.7-11.1,24.9-24.8,24.9c-13.7,0-24.9-11.1-24.9-24.9V334.1c0-13.5-11.1-24.5-24.6-24.5H618.8"/></g>
</svg>