<?xml version="1.0" encoding="UTF-8"?>
<svg width="50px" height="51px" viewBox="0 0 50 51" version="1.1" xmlns="http://www.w3.org/2000/svg" xmlns:xlink="http://www.w3.org/1999/xlink">
    <!-- Generator: Sketch 47.1 (45422) - http://www.bohemiancoding.com/sketch -->
    <title>24h-blue</title>
    <desc>Created with Sketch.</desc>
    <defs>
        <path d="M0,20.2744444 C0,31.1816667 8.97166667,40.055 20,40.055 C31.0283333,40.055 40,31.1816667 40,20.2744444 C40,9.36722222 31.0283333,0.494444444 20,0.494444444 C8.97166667,0.494444444 0,9.36722222 0,20.2744444 Z" id="path-1"></path>
        <path d="M0.277777778,17.4966667 C0.277777778,27.0555556 8.11333333,34.8044444 17.7777778,34.8044444 C27.4422222,34.8044444 35.2777778,27.0555556 35.2777778,17.4966667 C35.2777778,7.93833333 27.4422222,0.188888889 17.7777778,0.188888889 C8.11333333,0.188888889 0.277777778,7.93833333 0.277777778,17.4966667 Z" id="path-3"></path>
        <path d="M0.486111111,0.87 L0.486111111,3.01277778 C0.486111111,3.35388889 0.765555556,3.63111111 1.11111111,3.63111111 C1.45611111,3.63111111 1.73611111,3.35388889 1.73611111,3.01277778 L1.73611111,0.87 C1.73611111,0.527777778 1.45611111,0.251666667 1.11111111,0.251666667 C0.765555556,0.251666667 0.486111111,0.527777778 0.486111111,0.87 Z" id="path-5"></path>
        <path d="M0.486111111,0.962222222 L0.486111111,3.105 C0.486111111,3.44611111 0.765555556,3.72277778 1.11111111,3.72277778 C1.45611111,3.72277778 1.73611111,3.44611111 1.73611111,3.105 L1.73611111,0.962222222 C1.73611111,0.620555556 1.45611111,0.343888889 1.11111111,0.343888889 C0.765555556,0.343888889 0.486111111,0.620555556 0.486111111,0.962222222 Z" id="path-7"></path>
        <path d="M0.451111111,0.264444444 C0.152222222,0.435 0.05,0.813333333 0.221666667,1.10944444 L1.30444444,2.96555556 C1.42,3.16444444 1.63055556,3.275 1.84722222,3.275 C1.95277778,3.275 2.06055556,3.24888889 2.15888889,3.19333333 C2.45888889,3.02166667 2.56055556,2.64444444 2.38888889,2.34833333 L1.30555556,0.491111111 C1.19,0.292777778 0.978888889,0.182222222 0.762222222,0.182222222 C0.656666667,0.182222222 0.548888889,0.208888889 0.451111111,0.264444444 Z" id="path-9"></path>
        <path d="M0.618333333,0.133888889 C0.318888889,0.305 0.217222222,0.683333333 0.388888889,0.978888889 L1.47166667,2.83555556 C1.58777778,3.03333333 1.79777778,3.14444444 2.01388889,3.14444444 C2.12,3.14444444 2.22833333,3.11833333 2.32611111,3.06277778 C2.62555556,2.89166667 2.72777778,2.51388889 2.55611111,2.21777778 L1.47277778,0.361111111 C1.35666667,0.162222222 1.14666667,0.0511111111 0.930555556,0.0516666667 C0.824444444,0.0516666667 0.716666667,0.0777777778 0.618333333,0.133888889 Z" id="path-11"></path>
        <path d="M0.385,0.818333333 C0.212777778,1.11388889 0.314444444,1.49277778 0.614444444,1.66333333 L2.49166667,2.73444444 C2.58944444,2.78944444 2.69777778,2.81666667 2.80444444,2.81666667 C3.02,2.81666667 3.23055556,2.70555556 3.34611111,2.50833333 C3.51777778,2.21111111 3.41611111,1.83388889 3.11611111,1.66222222 L1.23944444,0.591666667 C1.14,0.535555556 1.03222222,0.508888889 0.926111111,0.508888889 C0.709444444,0.509444444 0.5,0.62 0.385,0.818333333 Z" id="path-13"></path>
        <path d="M0.543333333,0.818888889 C0.371111111,1.115 0.473333333,1.49333333 0.772777778,1.66388889 L2.65,2.735 C2.74833333,2.79 2.85611111,2.81722222 2.96277778,2.81722222 C3.17833333,2.81722222 3.38888889,2.70611111 3.50444444,2.50833333 C3.67611111,2.21222222 3.57444444,1.83388889 3.27444444,1.66277778 L1.39777778,0.591666667 C1.29888889,0.536111111 1.19111111,0.51 1.08555556,0.51 C0.868888889,0.51 0.658333333,0.62 0.543333333,0.818888889 Z" id="path-15"></path>
        <path d="M0.972222222,0.211666667 C0.626666667,0.211666667 0.347222222,0.488333333 0.347222222,0.83 C0.347222222,1.17166667 0.626666667,1.44833333 0.972222222,1.44833333 L3.13944444,1.44833333 C3.48388889,1.44833333 3.76444444,1.17166667 3.76444444,0.83 C3.76444444,0.488333333 3.48388889,0.211666667 3.13944444,0.211666667 L0.972222222,0.211666667 Z" id="path-17"></path>
        <path d="M0.75,0.211666667 C0.405,0.211666667 0.125,0.488333333 0.125,0.83 C0.125,1.17166667 0.405,1.44833333 0.75,1.44833333 L2.91666667,1.44833333 C3.26166667,1.44833333 3.54166667,1.17166667 3.54166667,0.83 C3.54166667,0.488333333 3.26166667,0.211666667 2.91666667,0.211666667 L0.75,0.211666667 Z" id="path-19"></path>
        <path d="M2.49111111,0.591666667 L0.614444444,1.66277778 C0.314444444,1.83388889 0.212777778,2.21222222 0.384444444,2.50833333 C0.5,2.70611111 0.71,2.81722222 0.926666667,2.81722222 C1.03277778,2.81722222 1.14055556,2.79 1.23888889,2.735 L3.11611111,1.66388889 C3.41555556,1.49333333 3.51833333,1.115 3.34555556,0.818888889 C3.23,0.62 3.01944444,0.51 2.80277778,0.51 C2.69666667,0.51 2.58944444,0.536111111 2.49111111,0.591666667 Z" id="path-21"></path>
        <path d="M2.64944444,0.591666667 L0.772777778,1.66222222 C0.472777778,1.83388889 0.371111111,2.21111111 0.542777778,2.50833333 C0.658333333,2.70555556 0.868888889,2.81666667 1.085,2.81666667 C1.19111111,2.81666667 1.29888889,2.78944444 1.39722222,2.73444444 L3.27444444,1.66333333 C3.57388889,1.49277778 3.67611111,1.11388889 3.50388889,0.818333333 C3.38833333,0.62 3.17777778,0.508888889 2.96166667,0.508888889 C2.85555556,0.508888889 2.74833333,0.535555556 2.64944444,0.591666667 Z" id="path-23"></path>
        <path d="M1.305,0.361111111 L0.221666667,2.21777778 C0.05,2.51388889 0.152222222,2.89166667 0.451666667,3.06277778 C0.549444444,3.11833333 0.657777778,3.14444444 0.763888889,3.14444444 C0.98,3.14444444 1.19,3.03333333 1.30611111,2.83555556 L2.38888889,0.978888889 C2.56055556,0.683333333 2.45888889,0.305 2.15944444,0.133888889 C2.06055556,0.0777777778 1.95277778,0.0511111111 1.84666667,0.0516666667 C1.63055556,0.0516666667 1.42111111,0.162222222 1.305,0.361111111 Z" id="path-25"></path>
        <path d="M1.47222222,0.491111111 L0.388888889,2.34833333 C0.217222222,2.64444444 0.318888889,3.02166667 0.618333333,3.19333333 C0.717222222,3.24888889 0.825,3.275 0.931111111,3.275 C1.14722222,3.275 1.35777778,3.16444444 1.47333333,2.96555556 L2.55611111,1.10944444 C2.72777778,0.813333333 2.62555556,0.435 2.32666667,0.264444444 C2.22777778,0.208888889 2.12,0.182222222 2.01388889,0.182222222 C1.79722222,0.182222222 1.58722222,0.292777778 1.47222222,0.491111111 Z" id="path-27"></path>
        <path d="M0,25.275 C0,11.6405556 11.215,0.549444444 25.0005556,0.549444444 C38.785,0.549444444 50,11.6405556 50,25.275 C50,38.9083333 38.785,50 25.0005556,50 C11.215,50 0,38.9083333 0,25.275 Z M2.44166667,25.275 C2.44166667,37.5766667 12.5611111,47.5855556 25.0005556,47.5855556 C37.4394444,47.5855556 47.5583333,37.5766667 47.5583333,25.275 C47.5583333,12.9722222 37.4394444,2.96388889 25.0005556,2.96388889 C12.5611111,2.96388889 2.44166667,12.9722222 2.44166667,25.275 Z" id="path-29"></path>
    </defs>
    <g id="Page-1" stroke="none" stroke-width="1" fill="none" fill-rule="evenodd">
        <g id="24h-blue">
            <g id="Page-1">
                <g id="Group-3" transform="translate(5.000000, 5.006111)">
                    <mask id="mask-2" fill="white">
                        <use xlink:href="#path-1"></use>
                    </mask>
                    <g id="Clip-2"></g>
                    <polygon id="Fill-1" fill="#1B2C48" mask="url(#mask-2)" points="-2.77777778 42.8327778 42.7777778 42.8327778 42.7777778 -2.28333333 -2.77777778 -2.28333333"></polygon>
                </g>
                <g id="Group-6" transform="translate(7.222222, 7.783889)">
                    <mask id="mask-4" fill="white">
                        <use xlink:href="#path-3"></use>
                    </mask>
                    <g id="Clip-5"></g>
                    <polygon id="Fill-4" fill="#3AB5E8" mask="url(#mask-4)" points="-2.5 37.5822222 38.0555556 37.5822222 38.0555556 -2.58888889 -2.5 -2.58888889"></polygon>
                </g>
                <g id="Group-9" transform="translate(23.888889, 8.339444)">
                    <mask id="mask-6" fill="white">
                        <use xlink:href="#path-5"></use>
                    </mask>
                    <g id="Clip-8"></g>
                    <polygon id="Fill-7" fill="#1B2C48" mask="url(#mask-6)" points="-2.29166667 6.40888889 4.51388889 6.40888889 4.51388889 -2.52611111 -2.29166667 -2.52611111"></polygon>
                </g>
                <g id="Group-12" transform="translate(23.888889, 37.783889)">
                    <mask id="mask-8" fill="white">
                        <use xlink:href="#path-7"></use>
                    </mask>
                    <g id="Clip-11"></g>
                    <polygon id="Fill-10" fill="#1B2C48" mask="url(#mask-8)" points="-2.29166667 6.50111111 4.51388889 6.50111111 4.51388889 -2.43388889 -2.29166667 -2.43388889"></polygon>
                </g>
                <g id="Group-15" transform="translate(16.111111, 10.561667)">
                    <mask id="mask-10" fill="white">
                        <use xlink:href="#path-9"></use>
                    </mask>
                    <g id="Clip-14"></g>
                    <polygon id="Fill-13" fill="#1B2C48" mask="url(#mask-10)" points="-2.63944444 6.05277778 5.24944444 6.05277778 5.24944444 -2.59555556 -2.63944444 -2.59555556"></polygon>
                </g>
                <g id="Group-18" transform="translate(31.111111, 36.672778)">
                    <mask id="mask-12" fill="white">
                        <use xlink:href="#path-11"></use>
                    </mask>
                    <g id="Clip-17"></g>
                    <polygon id="Fill-16" fill="#1B2C48" mask="url(#mask-12)" points="-2.47222222 5.92277778 5.41666667 5.92277778 5.41666667 -2.72611111 -2.47222222 -2.72611111"></polygon>
                </g>
                <g id="Group-21" transform="translate(10.000000, 16.117222)">
                    <mask id="mask-14" fill="white">
                        <use xlink:href="#path-13"></use>
                    </mask>
                    <g id="Clip-20"></g>
                    <polygon id="Fill-19" fill="#1B2C48" mask="url(#mask-14)" points="-2.47666667 5.59444444 6.20722222 5.59444444 6.20722222 -2.26888889 -2.47666667 -2.26888889"></polygon>
                </g>
                <g id="Group-24" transform="translate(36.111111, 31.117222)">
                    <mask id="mask-16" fill="white">
                        <use xlink:href="#path-15"></use>
                    </mask>
                    <g id="Clip-23"></g>
                    <polygon id="Fill-22" fill="#1B2C48" mask="url(#mask-16)" points="-2.31777778 5.595 6.36611111 5.595 6.36611111 -2.26777778 -2.31777778 -2.26777778"></polygon>
                </g>
                <g id="Group-27" transform="translate(7.777778, 24.450556)">
                    <mask id="mask-18" fill="white">
                        <use xlink:href="#path-17"></use>
                    </mask>
                    <g id="Clip-26"></g>
                    <polygon id="Fill-25" fill="#1B2C48" mask="url(#mask-18)" points="-2.43055556 4.22611111 6.54166667 4.22611111 6.54166667 -2.56611111 -2.43055556 -2.56611111"></polygon>
                </g>
                <g id="Group-30" transform="translate(38.333333, 24.450556)">
                    <mask id="mask-20" fill="white">
                        <use xlink:href="#path-19"></use>
                    </mask>
                    <g id="Clip-29"></g>
                    <polygon id="Fill-28" fill="#1B2C48" mask="url(#mask-20)" points="-2.65277778 4.22611111 6.31944444 4.22611111 6.31944444 -2.56611111 -2.65277778 -2.56611111"></polygon>
                </g>
                <g id="Group-33" transform="translate(10.000000, 31.117222)">
                    <mask id="mask-22" fill="white">
                        <use xlink:href="#path-21"></use>
                    </mask>
                    <g id="Clip-32"></g>
                    <polygon id="Fill-31" fill="#1B2C48" mask="url(#mask-22)" points="-2.47666667 5.595 6.20666667 5.595 6.20666667 -2.26777778 -2.47666667 -2.26777778"></polygon>
                </g>
                <g id="Group-36" transform="translate(36.111111, 16.117222)">
                    <mask id="mask-24" fill="white">
                        <use xlink:href="#path-23"></use>
                    </mask>
                    <g id="Clip-35"></g>
                    <polygon id="Fill-34" fill="#1B2C48" mask="url(#mask-24)" points="-2.31833333 5.59444444 6.36555556 5.59444444 6.36555556 -2.26888889 -2.31833333 -2.26888889"></polygon>
                </g>
                <g id="Group-39" transform="translate(16.111111, 36.672778)">
                    <mask id="mask-26" fill="white">
                        <use xlink:href="#path-25"></use>
                    </mask>
                    <g id="Clip-38"></g>
                    <polygon id="Fill-37" fill="#1B2C48" mask="url(#mask-26)" points="-2.63944444 5.92277778 5.24944444 5.92277778 5.24944444 -2.72611111 -2.63944444 -2.72611111"></polygon>
                </g>
                <g id="Group-42" transform="translate(31.111111, 10.561667)">
                    <mask id="mask-28" fill="white">
                        <use xlink:href="#path-27"></use>
                    </mask>
                    <g id="Clip-41"></g>
                    <polygon id="Fill-40" fill="#1B2C48" mask="url(#mask-28)" points="-2.47222222 6.05277778 5.41666667 6.05277778 5.41666667 -2.59555556 -2.47222222 -2.59555556"></polygon>
                </g>
                <g id="Group-45" transform="translate(0.000000, 0.006111)">
                    <mask id="mask-30" fill="white">
                        <use xlink:href="#path-29"></use>
                    </mask>
                    <g id="Clip-44"></g>
                    <polygon id="Fill-43" fill="#1B2C48" mask="url(#mask-30)" points="-2.77777778 52.7777778 52.7777778 52.7777778 52.7777778 -2.22833333 -2.77777778 -2.22833333"></polygon>
                </g>
                <g id="Group-54" transform="translate(12.222222, 20.006111)" fill="#FFFFFF">
                    <path d="M0.540055556,7.28372222 L2.70116667,5.51372222 C3.64616667,4.74261111 4.01505556,4.31927778 4.01505556,3.68927778 C4.01505556,3.04872222 3.59116667,2.70094444 2.9945,2.70094444 C2.51727778,2.70094444 2.18005556,2.90761111 1.75616667,3.36372222 C1.64783333,3.48316667 1.45283333,3.60261111 1.19172222,3.60261111 C0.767833333,3.60261111 0.432277778,3.26594444 0.432277778,2.84261111 C0.432277778,2.65761111 0.507277778,2.46261111 0.627277778,2.3215 C1.23505556,1.61538889 1.95227778,1.20316667 3.10283333,1.20316667 C4.67672222,1.20316667 5.72005556,2.12538889 5.72005556,3.54816667 L5.72005556,3.56983333 C5.72005556,4.84038889 5.06838889,5.47038889 3.72227778,6.51261111 L2.4845,7.46816667 L5.13338889,7.46816667 C5.53561111,7.46816667 5.86061111,7.79372222 5.86061111,8.19594444 C5.86061111,8.59761111 5.53561111,8.91261111 5.13338889,8.91261111 L1.00672222,8.91261111 C0.485611111,8.91261111 0.106166667,8.61927778 0.106166667,8.11983333 C0.106166667,7.79372222 0.257833333,7.5115 0.540055556,7.28372222" id="Fill-46"></path>
                    <path d="M10.5666667,5.91544444 L10.5666667,3.54822222 L8.54666667,5.91544444 L10.5666667,5.91544444 Z M10.5666667,7.27266667 L7.43888889,7.27266667 C6.99333333,7.27266667 6.62444444,6.94655556 6.62444444,6.50155556 C6.62444444,6.15433333 6.76555556,5.88266667 7.01555556,5.58988889 L10.3161111,1.75655556 C10.6316667,1.38711111 10.8705556,1.19211111 11.3588889,1.19211111 C11.8044444,1.19211111 12.1622222,1.53933333 12.1622222,1.98433333 L12.1622222,5.91544444 L12.565,5.91544444 C12.945,5.91544444 13.2483333,6.21933333 13.2483333,6.59933333 C13.2483333,6.97988889 12.945,7.27266667 12.565,7.27266667 L12.1622222,7.27266667 L12.1622222,8.18488889 C12.1622222,8.62988889 11.8044444,8.97766667 11.3588889,8.97766667 C10.9138889,8.97766667 10.5666667,8.62988889 10.5666667,8.18488889 L10.5666667,7.27266667 Z" id="Fill-48"></path>
                    <path d="M13.6211111,9.4335 L17.8672222,0.561833333 C17.9861111,0.312388889 18.1816667,0.182388889 18.4427778,0.182388889 C18.7905556,0.182388889 19.0827778,0.475166667 19.0827778,0.800722222 C19.0827778,0.920166667 19.0394444,1.03961111 19.0066667,1.11572222 L14.7611111,9.98738889 C14.6416667,10.2373889 14.4461111,10.3673889 14.1855556,10.3673889 C13.8383333,10.3673889 13.545,10.0740556 13.545,9.7485 C13.545,9.62905556 13.5883333,9.50961111 13.6211111,9.4335" id="Fill-50"></path>
                    <path d="M20.6501667,7.70716667 L23.4735,2.7555 L20.5629444,2.7555 C20.1612778,2.7555 19.8351667,2.44105556 19.8351667,2.03883333 C19.8351667,1.63716667 20.1612778,1.31105556 20.5629444,1.31105556 L24.6896111,1.31105556 C25.1557222,1.31105556 25.4496111,1.58272222 25.4496111,2.0605 C25.4496111,2.3105 25.3518333,2.61438889 25.2107222,2.87494444 L22.1596111,8.41272222 C21.9418333,8.81494444 21.6812778,8.97772222 21.3562778,8.97772222 C20.9107222,8.97772222 20.4985,8.70605556 20.4985,8.22827778 C20.4985,8.08716667 20.5629444,7.85883333 20.6501667,7.70716667" id="Fill-52"></path>
                </g>
            </g>
        </g>
    </g>
</svg>