<?xml version="1.0" encoding="UTF-8"?>
<svg width="50px" height="50px" viewBox="0 0 50 50" version="1.1" xmlns="http://www.w3.org/2000/svg" xmlns:xlink="http://www.w3.org/1999/xlink">
    <!-- Generator: Sketch 46.2 (44496) - http://www.bohemiancoding.com/sketch -->
    <title>Illustration/Payments</title>
    <desc>Created with Sketch.</desc>
    <defs>
        <polygon id="path-1" points="0 31.5630345 39.7070345 31.5630345 39.7070345 0 0 0"></polygon>
    </defs>
    <g id="Symbols" stroke="none" stroke-width="1" fill="none" fill-rule="evenodd">
        <g id="Illustration/Payments">
            <g id="Payments-icon" transform="translate(0.000000, 9.000000)">
                <path d="M0.965517241,25.7446069 L0.965517241,3.41908966 C0.965517241,2.06405517 2.064,0.965572414 3.41903448,0.965572414 C4.77406897,0.965572414 5.87310345,2.06405517 5.87310345,3.41908966 L5.87310345,25.7264 L0.965517241,25.7446069 Z" id="Fill-1" fill="#36B375"></path>
                <path d="M0.965517241,26.7101241 C0.432,26.7101241 0,26.2781241 0,25.7446069 L0,3.41908966 C0,1.53384828 1.5337931,5.51724137e-05 3.41903448,5.51724137e-05 C5.30427586,5.51724137e-05 6.83862069,1.53384828 6.83862069,3.41908966 L6.83862069,25.7264 C6.83862069,26.2599172 6.40606897,26.6919172 5.87310345,26.6919172 C5.33958621,26.6919172 4.90758621,26.2599172 4.90758621,25.7264 L4.90758621,3.41908966 C4.90758621,2.59867586 4.24,1.93108966 3.41903448,1.93108966 C2.59862069,1.93108966 1.93103448,2.59867586 1.93103448,3.41908966 L1.93103448,25.7446069 C1.93103448,26.2781241 1.49903448,26.7101241 0.965517241,26.7101241" id="Fill-3" fill="#213D68"></path>
                <mask id="mask-2" fill="white">
                    <use xlink:href="#path-1"></use>
                </mask>
                <g id="Clip-6"></g>
                <path d="M5.87310345,26.710069 C5.33958621,26.710069 4.90758621,26.278069 4.90758621,25.7445517 L4.90758621,3.90013793 C4.90758621,3.36717241 5.33958621,2.93462069 5.87310345,2.93462069 L38.7415172,2.93462069 C39.2750345,2.93462069 39.7070345,3.36717241 39.7070345,3.90013793 L39.7070345,25.7445517 C39.7070345,26.278069 39.2750345,26.710069 38.7415172,26.710069 L5.87310345,26.710069 Z" id="Fill-5" fill="#FFFFFF" mask="url(#mask-2)"></path>
                <path d="M6.83862069,24.7790345 L37.776,24.7790345 L37.776,4.86565517 L6.83862069,4.86565517 L6.83862069,24.7790345 Z M38.7415172,26.710069 L5.87310345,26.710069 C5.33958621,26.710069 4.90758621,26.278069 4.90758621,25.7445517 L4.90758621,3.90013793 C4.90758621,3.36717241 5.33958621,2.93462069 5.87310345,2.93462069 L38.7415172,2.93462069 C39.2750345,2.93462069 39.7070345,3.36717241 39.7070345,3.90013793 L39.7070345,25.7445517 C39.7070345,26.278069 39.2750345,26.710069 38.7415172,26.710069 L38.7415172,26.710069 Z" id="Fill-5" fill="#213D68" mask="url(#mask-2)"></path>
                <path d="M15.0129103,21.2758621 C14.8148414,21.2758621 14.6145655,21.2653793 14.4137379,21.2449655 C13.2358069,21.1235862 12.1571862,20.6546207 11.3759448,19.9257931 C11.0421517,19.6135172 11.0239448,19.089931 11.335669,18.7561379 C11.6479448,18.4212414 12.171531,18.4041379 12.5053241,18.7153103 C13.0173241,19.1936552 13.7748414,19.5153103 14.5842207,19.5986207 C15.4018759,19.6824828 16.1908414,19.5268966 16.7993931,19.1583448 C17.3340138,18.8344828 17.655669,18.3864828 17.7064276,17.8954483 C17.755531,17.4237241 17.5000828,16.8262069 17.1133241,16.5051034 C16.3519448,15.8733793 15.4564966,15.7012414 14.5080828,15.518069 C13.5254621,15.3288276 12.5091862,15.1329655 11.6457379,14.4124138 C10.8093241,13.7144828 10.3563586,12.6286897 10.4639448,11.5804138 C10.5693241,10.5602759 11.1718069,9.66924138 12.1599448,9.07062069 C13.0752552,8.51613793 14.2256,8.27944828 15.403531,8.39972414 C16.5803586,8.52165517 17.659531,8.98951724 18.4413241,9.71944828 C18.7751172,10.0306207 18.7938759,10.5542069 18.4816,10.8891034 C18.1704276,11.2228966 17.6451862,11.2411034 17.3119448,10.9293793 C16.7927724,10.4449655 16.0540138,10.1310345 15.2330483,10.046069 C14.4131862,9.96055172 13.6258759,10.1172414 13.0178759,10.4863448 C12.4832552,10.8096552 12.1610483,11.2587586 12.1102897,11.7497931 C12.0589793,12.2502069 12.2929103,12.7964138 12.7061517,13.1417931 C13.2418759,13.5886897 13.9740138,13.7293793 14.8214621,13.8926897 C15.8807724,14.0968276 17.0818759,14.3285517 18.1698759,15.2311724 C18.9825655,15.9053793 19.4587034,17.0446897 19.3527724,18.0653793 C19.2479448,19.0838621 18.6460138,19.9754483 17.6573241,20.5746207 C16.8981517,21.0342069 15.9767724,21.2758621 15.0129103,21.2758621" id="Fill-7" fill="#213D68" mask="url(#mask-2)"></path>
                <path d="M14.9084138,22.6400552 C14.4515862,22.6400552 14.0808276,22.2692966 14.0808276,21.812469 L14.0808276,7.83177931 C14.0808276,7.37495172 14.4515862,7.0041931 14.9084138,7.0041931 C15.3652414,7.0041931 15.736,7.37495172 15.736,7.83177931 L15.736,21.812469 C15.736,22.2692966 15.3652414,22.6400552 14.9084138,22.6400552" id="Fill-8" fill="#213D68" mask="url(#mask-2)"></path>
                <path d="M33.3383724,20.5506207 L22.9576828,20.5506207 C22.5003034,20.5506207 22.1300966,20.1798621 22.1300966,19.7230345 C22.1300966,19.2662069 22.5003034,18.8954483 22.9576828,18.8954483 L33.3383724,18.8954483 C33.7952,18.8954483 34.1659586,19.2662069 34.1659586,19.7230345 C34.1659586,20.1798621 33.7952,20.5506207 33.3383724,20.5506207" id="Fill-9" fill="#213D68" mask="url(#mask-2)"></path>
                <path d="M33.3383724,15.6497655 L22.9576828,15.6497655 C22.5003034,15.6497655 22.1300966,15.2790069 22.1300966,14.8221793 C22.1300966,14.3653517 22.5003034,13.9945931 22.9576828,13.9945931 L33.3383724,13.9945931 C33.7952,13.9945931 34.1659586,14.3653517 34.1659586,14.8221793 C34.1659586,15.2790069 33.7952,15.6497655 33.3383724,15.6497655" id="Fill-10" fill="#213D68" mask="url(#mask-2)"></path>
                <path d="M33.3383724,10.7494621 L22.9576828,10.7494621 C22.5003034,10.7494621 22.1300966,10.3787034 22.1300966,9.92187586 C22.1300966,9.46504828 22.5003034,9.09428966 22.9576828,9.09428966 L33.3383724,9.09428966 C33.7952,9.09428966 34.1659586,9.46504828 34.1659586,9.92187586 C34.1659586,10.3787034 33.7952,10.7494621 33.3383724,10.7494621" id="Fill-11" fill="#213D68" mask="url(#mask-2)"></path>
                <path d="M5.87282759,25.7446069 C5.87282759,24.2411586 4.77434483,23.1277793 3.41931034,23.1277793 C2.06427586,23.1277793 0.965241379,24.2262621 0.965241379,25.5812966 L0.973517241,25.5812966 C0.973517241,28.3520552 3.06289655,30.5975724 7.06289655,30.5975724 L18.9111724,30.5975724 L18.9111724,25.7446069 L5.87282759,25.7446069 Z" id="Fill-12" fill="#36B375" mask="url(#mask-2)"></path>
                <path d="M6.83834483,25.7446069 L6.84386207,25.7446069 L6.83834483,25.7446069 Z M1.93406897,25.4836414 C1.93737931,25.5161931 1.93903448,25.5487448 1.93903448,25.5812966 C1.93903448,28.0795034 3.90262069,29.6320552 7.06289655,29.6320552 L17.9456552,29.6320552 L17.9456552,26.7101241 L5.87282759,26.7101241 C5.33931034,26.7101241 4.90731034,26.2781241 4.90731034,25.7446069 C4.90731034,24.8033655 4.26786207,24.0932966 3.41931034,24.0932966 C2.63144828,24.0932966 1.98427586,24.708469 1.93406897,25.4836414 L1.93406897,25.4836414 Z M18.9111724,31.5630897 L7.06289655,31.5630897 C2.26344828,31.5630897 0.0747586207,28.6494345 0.00965517241,25.716469 C0.00303448276,25.672331 -0.000275862069,25.6270897 -0.000275862069,25.5812966 C-0.000275862069,23.6960552 1.53406897,22.1622621 3.41931034,22.1622621 C5.016,22.1622621 6.32468966,23.2535724 6.71751724,24.7790897 L18.9111724,24.7790897 C19.4446897,24.7790897 19.8766897,25.2110897 19.8766897,25.7446069 L19.8766897,30.5975724 C19.8766897,31.1310897 19.4446897,31.5630897 18.9111724,31.5630897 L18.9111724,31.5630897 Z" id="Fill-13" fill="#213D68" mask="url(#mask-2)"></path>
            </g>
        </g>
    </g>
</svg>