<?xml version="1.0" encoding="iso-8859-1"?>
<!-- Generator: Adobe Illustrator 19.0.0, SVG Export Plug-In . SVG Version: 6.00 Build 0)  -->
<svg version="1.1" id="Capa_1" xmlns="http://www.w3.org/2000/svg" xmlns:xlink="http://www.w3.org/1999/xlink" x="0px" y="0px"
	 viewBox="0 0 512 512" style="enable-background:new 0 0 512 512;" xml:space="preserve">
<path style="fill:#76FFD9;" d="M152.078,344.268l0.12,64.054c0.017,8.807,7.236,15.999,16.043,15.983l320.267-0.602
	c8.807-0.017,15.999-7.236,15.983-16.043L504.131,215.5c-0.017-8.807-7.236-15.999-16.043-15.983l-96.081,0.18H167.956
	c-9.156,0-16.564,7.446-16.519,16.602L152.078,344.268z"/>
<polygon style="fill:#FFC843;" points="151.517,232.173 151.677,264.201 504.222,263.539 504.162,231.51 "/>
<path style="fill:#5DE0BF;" d="M383.518,318.891l-0.205-119.195H167.956c-9.156,0-16.564,7.446-16.519,16.602l0.545,119.023
	l215.553-0.385C376.342,334.919,383.534,327.699,383.518,318.891z"/>
<polygon style="fill:#FFA816;" points="151.677,264.201 383.548,263.785 383.488,231.756 151.517,232.173 "/>
<path style="fill:#FFFFFF;" d="M360.162,295.837c0.017,8.807-7.176,16.026-15.983,16.043l-320.267,0.602
	c-8.807,0.017-16.027-7.176-16.043-15.983L7.506,104.337C7.489,95.53,14.682,88.31,23.49,88.294l320.268-0.602
	c8.807-0.017,16.027,7.176,16.043,15.983L360.162,295.837z"/>
<g>
	<path style="fill:#FFC843;" d="M103.677,152.198c0.017,8.807-7.176,16.027-15.983,16.043l-24.02,0.045
		c-8.807,0.017-16.027-7.176-16.043-15.983l-0.015-8.007c-0.017-8.807,7.176-16.027,15.983-16.043l24.02-0.045
		c8.807-0.017,16.027,7.176,16.043,15.983L103.677,152.198z"/>
	<circle style="fill:#FFC843;" cx="295.838" cy="151.836" r="24.02"/>
</g>
<circle style="fill:#FF8025;" cx="247.798" cy="151.926" r="24.02"/>
<g>
	<path style="fill:#434C54;" d="M367.668,295.823l-0.361-192.161c-0.024-12.945-10.575-23.476-23.564-23.476L23.475,80.789
		C10.507,80.813-0.024,91.385,0,104.352l0.361,192.16c0.024,12.945,10.575,23.476,23.52,23.476c0.004,0,0.04,0,0.044,0
		l320.268-0.603C357.162,319.362,367.693,308.791,367.668,295.823z M23.897,304.976l-0.016,7.506v-7.506
		c-4.682,0-8.498-3.809-8.507-8.49l-0.361-192.16c-0.009-4.692,3.8-8.515,8.491-8.524l320.284-0.603c4.682,0,8.498,3.809,8.507,8.49
		l0.361,192.161c0.009,4.691-3.8,8.514-8.491,8.523L23.897,304.976z"/>
	<path style="fill:#434C54;" d="M496.73,271.06l0.257,136.613c0.004,2.255-0.882,4.389-2.494,6.007
		c-1.612,1.618-3.742,2.513-5.997,2.517L168.229,416.8c-0.006,0-0.011,0-0.016,0c-4.683,0-8.498-3.806-8.507-8.49l-0.12-64.054
		c-0.008-4.141-3.367-7.492-7.506-7.492c-0.005,0-0.01,0-0.015,0c-4.145,0.008-7.5,3.375-7.492,7.52l0.12,64.055
		c0.024,12.954,10.57,23.476,23.52,23.475c0.014,0,0.031,0,0.045,0l320.267-0.603c6.264-0.012,12.161-2.475,16.604-6.934
		c4.443-4.46,6.883-10.366,6.872-16.63l-0.361-192.16c-0.024-12.955-10.571-23.477-23.522-23.477c-0.014,0-0.029,0-0.042,0
		l-96.081,0.181c-4.145,0.008-7.5,3.375-7.492,7.52c0.008,4.141,3.367,7.492,7.506,7.492c0.005,0,0.01,0,0.015,0l96.079-0.181
		c0.005,0,0.01,0,0.016,0c4.684,0,8.5,3.806,8.508,8.491l0.076,40.534L496.73,271.06z"/>
</g>
<g>
	<path style="fill:#5DE0BF;" d="M167.927,248.657c-0.005,0-0.01,0-0.015,0l-40.034,0.075c-4.145,0.008-7.5,3.375-7.492,7.52
		c0.008,4.141,3.367,7.492,7.506,7.492c0.005,0,0.01,0,0.015,0l40.034-0.075c4.145-0.008,7.5-3.375,7.492-7.52
		C175.425,252.009,172.066,248.657,167.927,248.657z"/>
	<path style="fill:#5DE0BF;" d="M95.866,248.793c-0.005,0-0.01,0-0.015,0l-40.034,0.075c-4.145,0.008-7.5,3.375-7.492,7.52
		c0.008,4.141,3.367,7.492,7.506,7.492c0.005,0,0.01,0,0.015,0l40.034-0.075c4.145-0.008,7.5-3.375,7.492-7.52
		C103.365,252.145,100.006,248.793,95.866,248.793z"/>
	<path style="fill:#5DE0BF;" d="M312.047,248.387c-0.005,0-0.01,0-0.015,0l-40.034,0.075c-4.145,0.008-7.5,3.375-7.492,7.52
		c0.008,4.141,3.367,7.492,7.506,7.492c0.005,0,0.01,0,0.015,0l40.034-0.075c4.145-0.008,7.5-3.375,7.492-7.52
		C319.545,251.739,316.186,248.387,312.047,248.387z"/>
	<path style="fill:#5DE0BF;" d="M239.987,248.523c-0.005,0-0.01,0-0.015,0l-40.034,0.075c-4.145,0.008-7.5,3.375-7.492,7.52
		c0.008,4.141,3.367,7.492,7.506,7.492c0.005,0,0.01,0,0.015,0l40.034-0.075c4.145-0.008,7.5-3.375,7.492-7.52
		C247.485,251.874,244.127,248.523,239.987,248.523z"/>
</g>
<g>
	<path style="fill:#00C395;" d="M456.333,336.19c-0.005,0-0.01,0-0.015,0l-152.127,0.285c-4.145,0.008-7.5,3.375-7.492,7.52
		c0.008,4.141,3.367,7.492,7.506,7.492c0.005,0,0.01,0,0.015,0l152.127-0.285c4.145-0.008,7.5-3.375,7.492-7.52
		C463.832,339.542,460.473,336.19,456.333,336.19z"/>
	<path style="fill:#00C395;" d="M456.379,368.217l-96.081,0.181c-4.145,0.008-7.5,3.375-7.492,7.52
		c0.008,4.141,3.367,7.492,7.506,7.492c0.005,0,0.01,0,0.015,0l96.08-0.181c4.145-0.008,7.5-3.375,7.492-7.52
		c-0.008-4.141-3.367-7.492-7.506-7.492C456.388,368.217,456.383,368.217,456.379,368.217z"/>
</g>
<g>
</g>
<g>
</g>
<g>
</g>
<g>
</g>
<g>
</g>
<g>
</g>
<g>
</g>
<g>
</g>
<g>
</g>
<g>
</g>
<g>
</g>
<g>
</g>
<g>
</g>
<g>
</g>
<g>
</g>
</svg>
