<?xml version="1.0" encoding="iso-8859-1"?>
<!-- Generator: Adobe Illustrator 19.0.0, SVG Export Plug-In . SVG Version: 6.00 Build 0)  -->
<svg version="1.1" id="Capa_1" xmlns="http://www.w3.org/2000/svg" xmlns:xlink="http://www.w3.org/1999/xlink" x="0px" y="0px"
	 viewBox="0 0 512 512" style="enable-background:new 0 0 512 512;" xml:space="preserve">
<rect x="268.5" y="438.73" style="fill:#CCCCCC;" width="206" height="15"/>
<path style="fill:#696969;" d="M105,266.234v196.592l-24.87,8.29c-3.93,1.31-6.053,5.557-4.744,9.487
	c1.31,3.93,5.559,6.054,9.487,4.744l29.998-10c3.062-1.021,5.128-3.887,5.128-7.115V266.234H105z"/>
<path style="fill:#4F4F4F;" d="M180,266.234v196.592l24.87,8.29c3.93,1.31,6.053,5.557,4.744,9.487
	c-1.31,3.93-5.559,6.054-9.487,4.744l-29.998-10c-3.062-1.021-5.128-3.887-5.128-7.115V266.234H180z"/>
<polygon style="fill:#FF8646;" points="474.5,326.234 399.5,326.234 444.5,251.234 474.5,251.234 "/>
<rect x="268.5" y="251.23" style="fill:#FFA754;" width="176" height="75"/>
<polygon style="fill:#084F6D;" points="217.5,106.234 217.5,136.234 262.5,136.234 262.5,106.234 240,91.234 "/>
<rect x="217.5" y="61.23" style="fill:#FFE2A8;" width="45" height="45"/>
<path style="fill:#A8E5FF;" d="M262.5,128.734c-4.143,0-7.5,3.358-7.5,7.5s3.357,7.5,7.5,7.5c4.136,0,7.5,3.364,7.5,7.5
	s-3.364,7.5-7.5,7.5h-120v15h120c12.406,0,22.5-10.093,22.5-22.5S274.906,128.734,262.5,128.734z"/>
<path style="fill:#A45E43;" d="M142.5,26.266v90c24.853,0,45-20.147,45-45S167.353,26.266,142.5,26.266z"/>
<path style="fill:#C27749;" d="M157.5,71.266c0-24.853-6.716-45-15-45c-24.853,0-45,20.147-45,45s20.147,45,45,45
	C150.784,116.266,157.5,96.119,157.5,71.266z"/>
<g>
	<polygon style="fill:#CCCCCC;" points="380.5,176.228 380.5,221.234 440.5,221.234 440.5,176.234 	"/>
	<polygon style="fill:#CCCCCC;" points="504.5,191.234 474.5,191.234 444.5,116.234 504.5,161.234 	"/>
</g>
<polygon style="fill:#DBF4FF;" points="474.5,191.234 316.5,191.234 316.5,161.234 474.5,116.234 "/>
<polygon style="fill:#2DADE3;" points="474.498,161.234 429.495,99.568 474.498,41.234 504.5,41.234 504.5,161.234 "/>
<rect x="316.5" y="41.23" style="fill:#49C9FF;" width="158" height="120"/>
<polygon style="fill:#B3B3B3;" points="474.5,326.234 399.5,326.234 444.5,371.234 474.5,371.234 "/>
<rect x="268.5" y="326.23" style="fill:#CCCCCC;" width="176" height="45"/>
<g>
	<path style="fill:#FF8646;" d="M298.5,273.734c-4.143,0-7.5,3.358-7.5,7.5v40h15v-40C306,277.092,302.643,273.734,298.5,273.734z"
		/>
	<path style="fill:#FF8646;" d="M328.5,273.734c-4.143,0-7.5,3.358-7.5,7.5v40h15v-40C336,277.092,332.643,273.734,328.5,273.734z"
		/>
	<path style="fill:#FF8646;" d="M358.5,273.734c-4.143,0-7.5,3.358-7.5,7.5v40h15v-40C366,277.092,362.643,273.734,358.5,273.734z"
		/>
	<path style="fill:#FF8646;" d="M388.5,273.734c-4.143,0-7.5,3.358-7.5,7.5v40h15v-40C396,277.092,392.643,273.734,388.5,273.734z"
		/>
</g>
<path style="fill:#999999;" d="M504.5,228.734h-266c-4.143,0-7.5-3.358-7.5-7.5s3.357-7.5,7.5-7.5h266c4.143,0,7.5,3.358,7.5,7.5
	S508.643,228.734,504.5,228.734z"/>
<path style="fill:#CCCCCC;" d="M261,331.234v147c0,4.142,3.357,7.5,7.5,7.5s7.5-3.358,7.5-7.5v-147H261z"/>
<path style="fill:#B3B3B3;" d="M467,331.234v147c0,4.142,3.357,7.5,7.5,7.5s7.5-3.358,7.5-7.5v-147H467z"/>
<path style="fill:#49C9FF;" d="M37.5,146.266v79.968c0,4.142,3.357,7.5,7.5,7.5s7.5-3.358,7.5-7.5v-79.968H37.5z"/>
<g>
	<path style="fill:#DBF4FF;" d="M45,203.734H22.5c-12.406,0-22.5-10.093-22.5-22.5c0-4.142,3.357-7.5,7.5-7.5s7.5,3.358,7.5,7.5
		c0,4.136,3.364,7.5,7.5,7.5H45c4.143,0,7.5,3.358,7.5,7.5S49.143,203.734,45,203.734z"/>
	<path style="fill:#DBF4FF;" d="M15,181.234H0c0-12.407,10.094-22.5,22.5-22.5h120v15h-75l-22.5-10l-22.5,10
		C18.364,173.734,15,177.098,15,181.234z"/>
</g>
<path style="fill:#4F4F4F;" d="M142.5,236.234v75c24.853,0,45-20.147,45-45L142.5,236.234z"/>
<path style="fill:#696969;" d="M157.5,266.234l-15-30l-45,30c0,24.853,20.147,45,45,45C150.784,311.234,157.5,291.087,157.5,266.234
	z"/>
<path style="fill:#A8E5FF;" d="M167.5,146.234h-25l-30,60l30,60h45v-100C187.5,155.188,178.546,146.234,167.5,146.234z"/>
<path style="fill:#DBF4FF;" d="M142.5,146.234h-25c-11.046,0-20,8.954-20,20v100h45V146.234z"/>
<g>
	<circle style="fill:#FFE2A8;" cx="444.5" cy="281.23" r="7.5"/>
	<circle style="fill:#FFE2A8;" cx="414.5" cy="281.23" r="7.5"/>
</g>
<path style="fill:#4F4F4F;" d="M45,83.766c8.284,0,15,6.716,15,15v45H30v-45C30,90.482,36.716,83.766,45,83.766z"/>
<rect x="22.5" y="128.77" style="fill:#FFCB63;" width="45" height="45"/>
<polygon style="fill:#808080;" points="474.5,311.234 444.5,326.234 474.5,341.234 504.5,341.234 504.5,311.234 "/>
<rect x="238.5" y="311.23" style="fill:#999999;" width="236" height="30"/>
<g>
</g>
<g>
</g>
<g>
</g>
<g>
</g>
<g>
</g>
<g>
</g>
<g>
</g>
<g>
</g>
<g>
</g>
<g>
</g>
<g>
</g>
<g>
</g>
<g>
</g>
<g>
</g>
<g>
</g>
</svg>
