<?xml version="1.0" encoding="iso-8859-1"?>
<!-- Generator: Adobe Illustrator 19.0.0, SVG Export Plug-In . SVG Version: 6.00 Build 0)  -->
<svg version="1.1" id="Capa_1" xmlns="http://www.w3.org/2000/svg" xmlns:xlink="http://www.w3.org/1999/xlink" x="0px" y="0px"
	 viewBox="0 0 496.485 496.485" style="enable-background:new 0 0 496.485 496.485;" xml:space="preserve">
<path style="fill:#FFFFFF;" d="M337.067,7.758H32.97c-12.412,0-23.273,10.085-23.273,23.273v435.2
	c0,12.412,10.085,23.273,23.273,23.273h303.321c12.412,0,23.273-10.085,23.273-23.273V30.255
	C359.564,17.842,349.479,7.758,337.067,7.758z"/>
<path style="fill:#193651;" d="M337.067,496.485H32.97c-17.067,0-30.255-13.964-30.255-30.255V30.255C2.715,13.964,16.679,0,32.97,0
	h303.321c17.067,0,30.255,13.964,30.255,30.255v435.2C367.321,482.521,353.358,496.485,337.067,496.485z M32.97,15.515
	c-8.533,0-15.515,6.982-15.515,15.515v435.2c0,8.533,6.982,15.515,15.515,15.515h303.321c8.533,0,15.515-6.982,15.515-15.515V30.255
	c0-8.533-6.982-15.515-15.515-15.515H32.97V15.515z"/>
<rect x="403.006" y="7.758" style="fill:#E1E6E9;" width="83.006" height="480.97"/>
<path style="fill:#193651;" d="M485.236,496.485h-82.23c-3.879,0-7.758-3.103-7.758-7.758V7.758c0-3.879,3.103-7.758,7.758-7.758
	h83.006c3.879,0,7.758,3.103,7.758,7.758v480.97C492.994,493.382,489.891,496.485,485.236,496.485z M409.988,480.97h67.491V15.515
	h-67.491V480.97z"/>
<rect x="40.727" y="38.012" style="fill:#2EA2DB;" width="287.806" height="122.57"/>
<g>
	<rect x="40.727" y="421.236" style="fill:#E1E6E9;" width="37.236" height="37.236"/>
	<rect x="40.727" y="363.055" style="fill:#E1E6E9;" width="37.236" height="37.236"/>
	<rect x="40.727" y="305.648" style="fill:#E1E6E9;" width="37.236" height="37.236"/>
	<rect x="40.727" y="248.242" style="fill:#E1E6E9;" width="37.236" height="37.236"/>
	<rect x="40.727" y="190.061" style="fill:#E1E6E9;" width="37.236" height="37.236"/>
	<rect x="103.564" y="421.236" style="fill:#E1E6E9;" width="37.236" height="37.236"/>
	<rect x="103.564" y="363.055" style="fill:#E1E6E9;" width="37.236" height="37.236"/>
	<rect x="103.564" y="305.648" style="fill:#E1E6E9;" width="37.236" height="37.236"/>
	<rect x="103.564" y="248.242" style="fill:#E1E6E9;" width="37.236" height="37.236"/>
	<rect x="103.564" y="190.061" style="fill:#E1E6E9;" width="37.236" height="37.236"/>
	<rect x="166.4" y="421.236" style="fill:#E1E6E9;" width="37.236" height="37.236"/>
	<rect x="166.4" y="363.055" style="fill:#E1E6E9;" width="37.236" height="37.236"/>
	<rect x="166.4" y="305.648" style="fill:#E1E6E9;" width="37.236" height="37.236"/>
	<rect x="166.4" y="248.242" style="fill:#E1E6E9;" width="37.236" height="37.236"/>
	<rect x="166.4" y="190.061" style="fill:#E1E6E9;" width="37.236" height="37.236"/>
	<rect x="229.236" y="421.236" style="fill:#E1E6E9;" width="37.236" height="37.236"/>
	<rect x="229.236" y="363.055" style="fill:#E1E6E9;" width="37.236" height="37.236"/>
	<rect x="229.236" y="305.648" style="fill:#E1E6E9;" width="37.236" height="37.236"/>
	<rect x="229.236" y="248.242" style="fill:#E1E6E9;" width="37.236" height="37.236"/>
</g>
<rect x="229.236" y="190.061" style="fill:#F16051;" width="37.236" height="37.236"/>
<rect x="292.073" y="363.055" style="fill:#2EA2DB;" width="37.236" height="94.642"/>
<g>
	<rect x="292.073" y="305.648" style="fill:#E1E6E9;" width="37.236" height="37.236"/>
	<rect x="292.073" y="248.242" style="fill:#E1E6E9;" width="37.236" height="37.236"/>
</g>
<rect x="292.073" y="190.061" style="fill:#F16051;" width="37.236" height="37.236"/>
<g>
	<path style="fill:#193651;" d="M440.242,57.406h-37.236c-3.879,0-7.758-3.103-7.758-7.758s3.103-7.758,7.758-7.758h38.012
		c3.879,0,7.758,3.103,7.758,7.758S444.897,57.406,440.242,57.406z"/>
	<path style="fill:#193651;" d="M425.503,107.055h-22.497c-3.879,0-7.758-3.103-7.758-7.758s3.103-7.758,7.758-7.758h22.497
		c3.879,0,7.758,3.103,7.758,7.758S429.382,107.055,425.503,107.055z"/>
	<path style="fill:#193651;" d="M440.242,156.703h-37.236c-3.879,0-7.758-3.103-7.758-7.758c0-3.879,3.103-7.758,7.758-7.758h38.012
		c3.879,0,7.758,3.103,7.758,7.758C448,153.6,444.897,156.703,440.242,156.703z"/>
	<path style="fill:#193651;" d="M425.503,206.352h-22.497c-3.879,0-7.758-3.103-7.758-7.758c0-3.879,3.103-7.758,7.758-7.758h22.497
		c3.879,0,7.758,3.103,7.758,7.758C433.261,203.248,429.382,206.352,425.503,206.352z"/>
	<path style="fill:#193651;" d="M440.242,256h-37.236c-3.879,0-7.758-3.103-7.758-7.758c0-3.879,3.103-7.758,7.758-7.758h38.012
		c3.879,0,7.758,3.103,7.758,7.758C448,252.121,444.897,256,440.242,256z"/>
	<path style="fill:#193651;" d="M425.503,305.648h-22.497c-3.879,0-7.758-3.103-7.758-7.758c0-3.879,3.103-7.758,7.758-7.758h22.497
		c3.879,0,7.758,3.103,7.758,7.758C433.261,301.77,429.382,305.648,425.503,305.648z"/>
	<path style="fill:#193651;" d="M440.242,355.297h-37.236c-3.879,0-7.758-3.103-7.758-7.758c0-3.879,3.103-7.758,7.758-7.758h38.012
		c3.879,0,7.758,3.103,7.758,7.758C448,351.418,444.897,355.297,440.242,355.297z"/>
	<path style="fill:#193651;" d="M425.503,404.17h-22.497c-3.879,0-7.758-3.103-7.758-7.758c0-3.879,3.103-7.758,7.758-7.758h22.497
		c3.879,0,7.758,3.103,7.758,7.758C433.261,401.067,429.382,404.17,425.503,404.17z"/>
	<path style="fill:#193651;" d="M440.242,453.818h-37.236c-3.879,0-7.758-3.103-7.758-7.758c0-3.879,3.103-7.758,7.758-7.758h38.012
		c3.879,0,7.758,3.103,7.758,7.758C448,450.715,444.897,453.818,440.242,453.818z"/>
	<rect x="136.145" y="91.539" style="fill:#193651;" width="15.515" height="15.515"/>
</g>
<rect x="177.261" y="91.539" style="fill:#193651;" width="15.515" height="15.515"/>
<rect x="218.376" y="91.539" style="fill:#193651;" width="15.515" height="15.515"/>
<g>
</g>
<g>
</g>
<g>
</g>
<g>
</g>
<g>
</g>
<g>
</g>
<g>
</g>
<g>
</g>
<g>
</g>
<g>
</g>
<g>
</g>
<g>
</g>
<g>
</g>
<g>
</g>
<g>
</g>
</svg>
