<?xml version="1.0" encoding="UTF-8"?>
<svg width="50px" height="50px" viewBox="0 0 50 50" version="1.1" xmlns="http://www.w3.org/2000/svg" xmlns:xlink="http://www.w3.org/1999/xlink">
    <!-- Generator: Sketch 46.2 (44496) - http://www.bohemiancoding.com/sketch -->
    <title>Illustration/Pig</title>
    <desc>Created with Sketch.</desc>
    <defs></defs>
    <g id="Symbols" stroke="none" stroke-width="1" fill="none" fill-rule="evenodd">
        <g id="Illustration/Pig">
            <g id="Pig-icon" transform="translate(2.000000, 10.000000)">
                <g id="Group-4" transform="translate(27.000000, 24.000000)">
                    <path d="M0.458376812,0.571694545 C1.06243478,4.05038545 1.93721739,5.96398545 1.93721739,5.96398545 L4.51808696,5.96398545 L5.80678261,0.568785455" id="Fill-1" fill="#37B375"></path>
                    <path d="M0.458376812,0.571694545 C1.06243478,4.05038545 1.93721739,5.96398545 1.93721739,5.96398545 L4.51808696,5.96398545 L5.80678261,0.568785455" id="Stroke-3" stroke="#213D68" stroke-width="2.02898551" stroke-linecap="round" stroke-linejoin="round"></path>
                </g>
                <path d="M10.4313043,8.29425455 C9.06144928,5.03898182 5,5 5,5 L5,11.1882182 C5,11.1882182 7.92173913,12.7742545 8.94086957,12.2674909 C9.76869565,11.8567273 10.4313043,8.29425455 10.4313043,8.29425455" id="Fill-5" fill="#37B375"></path>
                <path d="M10.4313043,8.29425455 C9.06144928,5.03898182 5,5 5,5 L5,11.1882182 C5,11.1882182 7.92173913,12.7742545 8.94086957,12.2674909 C9.76869565,11.8567273 10.4313043,8.29425455 10.4313043,8.29425455 Z" id="Stroke-7" stroke="#213D68" stroke-width="2.02898551" stroke-linecap="round" stroke-linejoin="round"></path>
                <path d="M17.044058,6.29192727 C17.0463768,6.28029091 17.044058,6.29192727 17.044058,6.29192727 C15.6742029,3.03723636 11.3837681,3 11.3837681,3 L11.3837681,7.49163636 C5.6115942,9.44770909 3.19536232,13.2789818 3,17.9480727 L9.23478261,25.6210909 C9.81913043,28.5104 10.5391304,30.0853818 10.5391304,30.0853818 L13.12,30.0853818 L14.4086957,24.6901818 L16.8307246,24.6901818 L18.1194203,30.0853818 L20.7002899,30.0853818 C20.7002899,30.0853818 21.5756522,28.1717818 22.1791304,24.6930909 L22.1791304,24.6901818 L34.5646377,24.6901818 L35.8527536,30.0853818 L38.4336232,30.0853818 C38.4336232,30.0853818 40.0550725,26.5188364 40.4092754,20.2695273 C41.0904348,8.23810909 31.4156522,4.38763636 17.044058,6.29192727" id="Fill-9" fill="#37B375"></path>
                <path d="M17.044058,6.29192727 C17.0463768,6.28029091 17.044058,6.29192727 17.044058,6.29192727 C15.6742029,3.03723636 11.3837681,3 11.3837681,3 L11.3837681,7.49163636 C5.6115942,9.44770909 3.19536232,13.2789818 3,17.9480727 L9.23478261,25.6210909 C9.81913043,28.5104 10.5391304,30.0853818 10.5391304,30.0853818 L13.12,30.0853818 L14.4086957,24.6901818 L16.8307246,24.6901818 L18.1194203,30.0853818 L20.7002899,30.0853818 C20.7002899,30.0853818 21.5756522,28.1717818 22.1791304,24.6930909 L22.1791304,24.6901818 L34.5646377,24.6901818 L35.8527536,30.0853818 L38.4336232,30.0853818 C38.4336232,30.0853818 40.0550725,26.5188364 40.4092754,20.2695273 C41.0904348,8.23810909 31.4156522,4.38763636 17.044058,6.29192727 Z" id="Stroke-11" stroke="#213D68" stroke-width="2.02898551" stroke-linecap="round" stroke-linejoin="round"></path>
                <path d="M11.5321739,21.3549091 C11.5321739,23.5728 9.6226087,25.7098182 5.76637681,25.7098182 C1.90956522,25.7098182 0,23.5728 0,21.3549091 C0,19.1376 1.90956522,17 5.76637681,17 C9.6226087,17 11.5321739,19.1376 11.5321739,21.3549091" id="Fill-13" fill="#37B375"></path>
                <path d="M11.5321739,21.3549091 C11.5321739,23.5728 9.6226087,25.7098182 5.76637681,25.7098182 C1.90956522,25.7098182 0,23.5728 0,21.3549091 C0,19.1376 1.90956522,17 5.76637681,17 C9.6226087,17 11.5321739,19.1376 11.5321739,21.3549091 Z" id="Stroke-15" stroke="#213D68" stroke-width="2.02898551" stroke-linecap="round" stroke-linejoin="round"></path>
                <path d="M4.0457971,20 C3.46898551,20 3,20.4712727 3,21.0501818 C3,21.6285091 3.46898551,22.0992 4.0457971,22.0992 C4.6226087,22.0992 5.0915942,21.6285091 5.0915942,21.0501818 C5.0915942,20.4712727 4.6226087,20 4.0457971,20" id="Fill-17" fill="#213D68"></path>
                <path d="M8.0457971,20 C7.46898551,20 7,20.4712727 7,21.0501818 C7,21.6285091 7.46898551,22.0992 8.0457971,22.0992 C8.6226087,22.0992 9.0915942,21.6285091 9.0915942,21.0501818 C9.0915942,20.4712727 8.6226087,20 8.0457971,20" id="Fill-19" fill="#213D68"></path>
                <path d="M8.0457971,20 C7.46898551,20 7,20.4712727 7,21.0501818 C7,21.6285091 7.46898551,22.0992 8.0457971,22.0992 C8.6226087,22.0992 9.0915942,21.6285091 9.0915942,21.0501818 C9.0915942,20.4712727 8.6226087,20 8.0457971,20" id="Fill-21" fill="#213D68"></path>
                <path d="M11.0457971,13 C10.4689855,13 10,13.4718545 10,14.0501818 C10,14.6290909 10.4689855,15.0992 11.0457971,15.0992 C11.6226087,15.0992 12.0921739,14.6290909 12.0921739,14.0501818 C12.0921739,13.4718545 11.6226087,13 11.0457971,13" id="Fill-23" fill="#213D68"></path>
                <path d="M7.0457971,13 C6.46898551,13 6,13.4718545 6,14.0501818 C6,14.6290909 6.46898551,15.0992 7.0457971,15.0992 C7.6226087,15.0992 8.09217391,14.6290909 8.09217391,14.0501818 C8.09217391,13.4718545 7.6226087,13 7.0457971,13" id="Fill-25" fill="#213D68"></path>
                <path d="M25.0226087,6 C23.4214493,6.04887273 21.7466667,6.18210909 20,6.40669091 L20,9.22501818 C20,9.91912727 20.5611594,10.4823273 21.2533333,10.4823273 L29.9617391,10.4823273 C30.6533333,10.4823273 31.2144928,9.91912727 31.2144928,9.22501818 L31.2144928,7.06298182 C29.3866667,6.4736 27.3095652,6.12567273 25.0226087,6" id="Fill-27" fill="#FFFFFF"></path>
                <path d="M25.374412,6 C23.6611011,6.05451713 21.8690101,6.20314123 20,6.45366044 L20,9.59748183 C20,10.3717549 20.6004652,11 21.3411217,11 L30.6594986,11 C31.3995348,11 32,10.3717549 32,9.59748183 L32,7.18574766 C30.0441458,6.52829699 27.821556,6.14018692 25.374412,6 Z" id="Stroke-29" stroke="#213D68" stroke-width="2.02898551" stroke-linecap="round" stroke-linejoin="round"></path>
                <path d="M30,4.00027822 C30,6.20936218 28.2089303,8 26,8 C23.7905133,8 22,6.20936218 22,4.00027822 C22,1.79063782 23.7905133,0 26,0 C28.2089303,0 30,1.79063782 30,4.00027822 Z" id="Stroke-33" stroke="#213D68" stroke-width="2.02898551" fill="#F5A623" stroke-linecap="round" stroke-linejoin="round"></path>
            </g>
        </g>
    </g>
</svg>