<?xml version="1.0" encoding="UTF-8"?>
<svg width="50px" height="50px" viewBox="0 0 50 50" version="1.1" xmlns="http://www.w3.org/2000/svg" xmlns:xlink="http://www.w3.org/1999/xlink">
    <!-- Generator: Sketch 46.2 (44496) - http://www.bohemiancoding.com/sketch -->
    <title>Illustration/Documents</title>
    <desc>Created with Sketch.</desc>
    <defs></defs>
    <g id="Symbols" stroke="none" stroke-width="1" fill="none" fill-rule="evenodd">
        <g id="Illustration/Documents">
            <g id="Benefits-icon" transform="translate(0.000000, 8.000000)">
                <path d="M19.8611111,9.20572222 C19.8611111,4.5835 15.2772222,0.972388889 10.4627778,0.972388889 C5.22111111,0.972388889 0.972222222,5.22127778 0.972222222,10.4629444 C0.972222222,26.0646111 19.8611111,33.4718333 19.8611111,33.4718333 C19.8611111,33.4718333 38.75,26.0646111 38.75,10.4629444 C38.75,5.22127778 34.5011111,0.972388889 29.2594444,0.972388889 C24.445,0.972388889 19.8611111,4.67572222 19.8611111,9.20572222" id="Fill-1" fill="#ED5352"></path>
                <path d="M10.4627778,1.94444444 C5.76555556,1.94444444 1.94444444,5.76555556 1.94444444,10.4627778 C1.94444444,24.0733333 17.3094444,31.31 19.8605556,32.4172222 C22.4105556,31.3077778 37.7777778,24.0544444 37.7777778,10.4627778 C37.7777778,5.76555556 33.9566667,1.94444444 29.2594444,1.94444444 C24.7705556,1.94444444 20.8333333,5.33722222 20.8333333,9.20555556 C20.8333333,9.74277778 20.3983333,10.1777778 19.8611111,10.1777778 C19.3238889,10.1777778 18.8888889,9.74277778 18.8888889,9.20555556 C18.8888889,5.33722222 14.9516667,1.94444444 10.4627778,1.94444444 M19.8611111,34.4438889 C19.7405556,34.4438889 19.62,34.4216667 19.5061111,34.3766667 C19.3077778,34.2988889 14.5905556,32.4261111 9.80666667,28.5755556 C3.39111111,23.41 0,17.1461111 0,10.4627778 C0,4.69333333 4.69333333,0 10.4627778,0 C14.5727778,0 18.2166667,2.25388889 19.8788889,5.41555556 C21.5727778,2.28111111 25.2361111,0 29.2594444,0 C35.0288889,0 39.7222222,4.69333333 39.7222222,10.4627778 C39.7222222,17.1461111 36.3311111,23.41 29.9155556,28.5755556 C25.1316667,32.4261111 20.4144444,34.2988889 20.2161111,34.3766667 C20.1022222,34.4216667 19.9816667,34.4438889 19.8611111,34.4438889" id="Fill-3" fill="#213D68"></path>
                <path d="M14.0972222,14.5366667 C14.0972222,15.0344444 13.6938889,15.4372222 13.1966667,15.4372222 C12.6988889,15.4372222 12.2961111,15.0344444 12.2961111,14.5366667 C12.2961111,14.0394444 12.6988889,13.6361111 13.1966667,13.6361111 C13.6938889,13.6361111 14.0972222,14.0394444 14.0972222,14.5366667" id="Fill-5" fill="#213D68"></path>
                <path d="M13.1966111,14.4650556 C13.1571667,14.4650556 13.1249444,14.4972778 13.1249444,14.5367222 C13.1249444,14.6156111 13.2682778,14.6156111 13.2682778,14.5367222 C13.2682778,14.4972778 13.2360556,14.4650556 13.1966111,14.4650556 M13.1966111,16.4095 C12.1643889,16.4095 11.3238333,15.5689444 11.3238333,14.5367222 C11.3238333,13.5045 12.1643889,12.6639444 13.1966111,12.6639444 C14.2288333,12.6639444 15.0693889,13.5045 15.0693889,14.5367222 C15.0693889,15.5689444 14.2288333,16.4095 13.1966111,16.4095" id="Fill-7" fill="#213D68"></path>
                <path d="M27.4262222,14.5366667 C27.4262222,15.0344444 27.0228889,15.4372222 26.5256667,15.4372222 C26.0278889,15.4372222 25.6251111,15.0344444 25.6251111,14.5366667 C25.6251111,14.0394444 26.0278889,13.6361111 26.5256667,13.6361111 C27.0228889,13.6361111 27.4262222,14.0394444 27.4262222,14.5366667" id="Fill-9" fill="#213D68"></path>
                <path d="M26.5256111,14.4650556 C26.4861667,14.4650556 26.4539444,14.4972778 26.4539444,14.5367222 C26.4539444,14.6156111 26.5972778,14.6156111 26.5972778,14.5367222 C26.5972778,14.4972778 26.5650556,14.4650556 26.5256111,14.4650556 M26.5256111,16.4095 C25.4933889,16.4095 24.6528333,15.5689444 24.6528333,14.5367222 C24.6528333,13.5045 25.4933889,12.6639444 26.5256111,12.6639444 C27.5578333,12.6639444 28.3983889,13.5045 28.3983889,14.5367222 C28.3983889,15.5689444 27.5578333,16.4095 26.5256111,16.4095" id="Fill-11" fill="#213D68"></path>
                <path d="M19.8611111,25.9722222 C17.3616667,25.9722222 15.3355556,23.9461111 15.3355556,21.4461111 L15.3355556,20 L24.3866667,20 L24.3866667,21.4461111 C24.3866667,23.9461111 22.3605556,25.9722222 19.8611111,25.9722222" id="Fill-13" fill="#FFFFFF"></path>
                <path d="M16.3075,20.9722222 L16.3075,21.4461111 C16.3075,23.4055556 17.9013889,25 19.8608333,25 C21.8208333,25 23.4147222,23.4055556 23.4147222,21.4461111 L23.4147222,20.9722222 L16.3075,20.9722222 Z M19.8608333,26.9444444 C16.8291667,26.9444444 14.3630556,24.4777778 14.3630556,21.4461111 L14.3630556,20 C14.3630556,19.4627778 14.7980556,19.0277778 15.3352778,19.0277778 L24.3869444,19.0277778 C24.9241667,19.0277778 25.3591667,19.4627778 25.3591667,20 L25.3591667,21.4461111 C25.3591667,24.4777778 22.8930556,26.9444444 19.8608333,26.9444444 L19.8608333,26.9444444 Z" id="Fill-15" fill="#213D68"></path>
            </g>
        </g>
    </g>
</svg>