<?xml version="1.0" encoding="iso-8859-1"?>
<!-- Generator: Adobe Illustrator 19.0.0, SVG Export Plug-In . SVG Version: 6.00 Build 0)  -->
<svg version="1.1" id="Capa_1" xmlns="http://www.w3.org/2000/svg" xmlns:xlink="http://www.w3.org/1999/xlink" x="0px" y="0px"
	 viewBox="0 0 512 512" style="enable-background:new 0 0 512 512;" xml:space="preserve">
<path style="fill:#4BBAED;" d="M280.944,215.385H38.333V43.668h242.611V215.385z"/>
<rect x="160" y="43.668" style="fill:#0999DB;" width="120.94" height="171.72"/>
<polygon style="fill:#0773A4;" points="197.578,131.069 121.699,131.069 99.507,276.335 219.771,276.335 "/>
<polygon style="fill:#054D6E;" points="160,276.335 219.771,276.335 197.578,131.069 160,131.069 "/>
<path style="fill:#4BBAED;" d="M303.008,161.001l14.417,115.333h143.817l14.416-115.333H303.008z"/>
<polygon style="fill:#0999DB;" points="389,161.001 389,276.335 461.242,276.335 475.658,161.001 "/>
<rect x="374.33" y="122.671" style="fill:#FF9900;" width="30" height="85.33"/>
<rect x="12.46" y="246.331" style="fill:#E5E5E5;" width="487.08" height="222"/>
<g>
	<rect x="256" y="246.331" style="fill:#CFCFCF;" width="243.54" height="222"/>
	<rect x="87.46" y="386.672" style="fill:#CFCFCF;" width="337.08" height="30"/>
	<rect x="87.46" y="325.331" style="fill:#CFCFCF;" width="337.08" height="30"/>
</g>
<rect y="246.331" style="fill:#FF7700;" width="512" height="30"/>
<rect x="256" y="246.331" style="fill:#FF4F19;" width="256" height="30"/>
<g>
	<rect x="256" y="386.672" style="fill:#A2A2A2;" width="168.54" height="30"/>
	<rect x="256" y="325.331" style="fill:#A2A2A2;" width="168.54" height="30"/>
</g>
<g>
</g>
<g>
</g>
<g>
</g>
<g>
</g>
<g>
</g>
<g>
</g>
<g>
</g>
<g>
</g>
<g>
</g>
<g>
</g>
<g>
</g>
<g>
</g>
<g>
</g>
<g>
</g>
<g>
</g>
</svg>
