<?xml version="1.0" encoding="UTF-8"?>
<svg width="50px" height="50px" viewBox="0 0 50 50" version="1.1" xmlns="http://www.w3.org/2000/svg" xmlns:xlink="http://www.w3.org/1999/xlink">
    <!-- Generator: Sketch 46.2 (44496) - http://www.bohemiancoding.com/sketch -->
    <title>Illustration/Docs</title>
    <desc>Created with Sketch.</desc>
    <defs>
        <polygon id="path-1" points="34.7222222 39.0243902 0 39.0243902 0 19.5968835 0 0.169376694 34.7222222 0.169376694"></polygon>
        <polygon id="path-3" points="0 39.397019 39.7222222 39.397019 39.7222222 0.541734417 0 0.541734417"></polygon>
    </defs>
    <g id="Symbols" stroke="none" stroke-width="1" fill="none" fill-rule="evenodd">
        <g id="Illustration/Docs">
            <g id="Docs-icon" transform="translate(0.000000, 5.000000)">
                <path d="M33.75,38.4485095 L3.75,38.4485095 C2.22222222,38.4485095 0.972222222,37.2289973 0.972222222,35.7384824 L0.972222222,4.200271 C0.972222222,2.7097561 2.22222222,1.4902439 3.75,1.4902439 L33.75,1.4902439 L33.75,38.4485095 Z" id="Fill-1" fill="#ED5352"></path>
                <g id="Group-5" transform="translate(0.000000, 0.372629)">
                    <mask id="mask-2" fill="white">
                        <use xlink:href="#path-1"></use>
                    </mask>
                    <g id="Clip-4"></g>
                    <path d="M3.75,2.06639566 C2.75444444,2.06639566 1.94444444,2.85663957 1.94444444,3.82791328 L1.94444444,35.3661247 C1.94444444,36.3368564 2.75444444,37.1276423 3.75,37.1276423 L32.7777778,37.1276423 L32.7777778,2.06639566 L3.75,2.06639566 Z M33.75,39.0246612 L3.75,39.0246612 C1.68222222,39.0246612 0,37.3829268 0,35.3661247 L0,3.82791328 C0,1.81056911 1.68222222,0.169376694 3.75,0.169376694 L33.75,0.169376694 C34.2872222,0.169376694 34.7222222,0.593766938 34.7222222,1.11788618 L34.7222222,38.0761518 C34.7222222,38.599729 34.2872222,39.0246612 33.75,39.0246612 L33.75,39.0246612 Z" id="Fill-3" fill="#213D68" mask="url(#mask-2)"></path>
                </g>
                <path d="M0.972222222,35.6273171 L0.972222222,35.7384282 C0.972222222,37.2289431 2.22222222,38.4484553 3.75,38.4484553 L33.75,38.4484553 L33.75,32.91729 L3.75,32.91729 C2.22222222,32.91729 0.972222222,34.1368022 0.972222222,35.6273171" id="Fill-6" fill="#FFFFFF"></path>
                <path d="M3.75,33.8657995 C2.75444444,33.8657995 1.94444444,34.6560434 1.94444444,35.6273171 L1.94444444,35.7384282 C1.94444444,36.7097019 2.75444444,37.4999458 3.75,37.4999458 L32.7777778,37.4999458 L32.7777778,33.8657995 L3.75,33.8657995 Z M33.75,39.3969648 L3.75,39.3969648 C1.68222222,39.3969648 0,37.7557724 0,35.7384282 L0,35.6273171 C0,33.6099729 1.68222222,31.9687805 3.75,31.9687805 L33.75,31.9687805 C34.2872222,31.9687805 34.7222222,32.3931707 34.7222222,32.91729 L34.7222222,38.4484553 C34.7222222,38.9725745 34.2872222,39.3969648 33.75,39.3969648 L33.75,39.3969648 Z" id="Fill-8" fill="#213D68"></path>
                <path d="M6.59666667,33.323794 C6.05944444,33.323794 5.62444444,32.8994038 5.62444444,32.3752846 L5.62444444,1.49073171 C5.62444444,0.966612466 6.05944444,0.542222222 6.59666667,0.542222222 C7.13388889,0.542222222 7.56888889,0.966612466 7.56888889,1.49073171 L7.56888889,32.3752846 C7.56888889,32.8994038 7.13388889,33.323794 6.59666667,33.323794" id="Fill-10" fill="#213D68"></path>
                <polygon id="Fill-12" fill="#ED5352" points="37.7777778 10.0376694 33.2638889 13.2902439 33.2638889 4.5504065 37.7777778 4.5504065"></polygon>
                <path d="M38.75,9.08915989 L38.7555556,9.08915989 L38.75,9.08915989 Z M35.2083333,4.5504065 L35.2083333,10.4620596 L37.7777778,8.61056911 L37.7777778,4.5504065 L35.2083333,4.5504065 Z M34.2361111,13.2902439 C34.0861111,13.2902439 33.9366667,13.2566396 33.7983333,13.1883469 C33.4705556,13.0273713 33.2638889,12.699458 33.2638889,12.3417344 L33.2638889,3.60189702 C33.2638889,3.07777778 33.6988889,2.65338753 34.2361111,2.65338753 L38.75,2.65338753 C39.2872222,2.65338753 39.7222222,3.07777778 39.7222222,3.60189702 L39.7222222,9.08915989 C39.7222222,9.39051491 39.5755556,9.67344173 39.3277778,9.85176152 L34.8138889,13.104336 C34.6427778,13.2279133 34.44,13.2902439 34.2361111,13.2902439 L34.2361111,13.2902439 Z" id="Fill-14" fill="#213D68"></path>
                <polygon id="Fill-16" fill="#ED5352" points="38.75 19.4550136 34.2361111 22.7075881 34.2361111 13.9677507 38.75 13.9677507"></polygon>
                <path d="M38.75,19.4550136 L38.7555556,19.4550136 L38.75,19.4550136 Z M35.2083333,14.9162602 L35.2083333,20.8279133 L37.7777778,18.9764228 L37.7777778,14.9162602 L35.2083333,14.9162602 Z M34.2361111,23.6560976 C34.0861111,23.6560976 33.9366667,23.6224932 33.7983333,23.5542005 C33.4705556,23.3932249 33.2638889,23.0653117 33.2638889,22.7075881 L33.2638889,13.9677507 C33.2638889,13.4436314 33.6988889,13.0192412 34.2361111,13.0192412 L38.75,13.0192412 C39.2872222,13.0192412 39.7222222,13.4436314 39.7222222,13.9677507 L39.7222222,19.4550136 C39.7222222,19.7563686 39.5755556,20.0392954 39.3277778,20.2176152 L34.8138889,23.4701897 C34.6427778,23.5937669 34.44,23.6560976 34.2361111,23.6560976 L34.2361111,23.6560976 Z" id="Fill-18" fill="#213D68"></path>
                <polygon id="Fill-20" fill="#ED5352" points="38.75 29.8208672 34.2361111 33.0734417 34.2361111 24.3336043 38.75 24.3336043"></polygon>
                <path d="M38.75,29.8208672 L38.7555556,29.8208672 L38.75,29.8208672 Z M35.2083333,25.2821138 L35.2083333,31.1937669 L37.7777778,29.3422764 L37.7777778,25.2821138 L35.2083333,25.2821138 Z M34.2361111,34.0219512 C34.0861111,34.0219512 33.9366667,33.9883469 33.7983333,33.9200542 C33.4705556,33.7590786 33.2638889,33.4311653 33.2638889,33.0734417 L33.2638889,24.3336043 C33.2638889,23.8094851 33.6988889,23.3850949 34.2361111,23.3850949 L38.75,23.3850949 C39.2872222,23.3850949 39.7222222,23.8094851 39.7222222,24.3336043 L39.7222222,29.8208672 C39.7222222,30.1222222 39.5755556,30.4051491 39.3277778,30.5834688 L34.8138889,33.8360434 C34.6427778,33.9596206 34.44,34.0219512 34.2361111,34.0219512 L34.2361111,34.0219512 Z" id="Fill-22" fill="#213D68"></path>
                <mask id="mask-4" fill="white">
                    <use xlink:href="#path-3"></use>
                </mask>
                <g id="Clip-25"></g>
                <polygon id="Fill-24" fill="#FFFFFF" mask="url(#mask-4)" points="13.2866667 13.9341463 27.3611111 13.9341463 27.3611111 6.85392954 13.2866667 6.85392954"></polygon>
                <path d="M14.2588889,12.9856369 L26.3888889,12.9856369 L26.3888889,7.80243902 L14.2588889,7.80243902 L14.2588889,12.9856369 Z M27.3611111,14.8826558 L13.2866667,14.8826558 C12.7494444,14.8826558 12.3144444,14.4582656 12.3144444,13.9341463 L12.3144444,6.85447154 C12.3144444,6.3303523 12.7494444,5.90596206 13.2866667,5.90596206 L27.3611111,5.90596206 C27.8983333,5.90596206 28.3333333,6.3303523 28.3333333,6.85447154 L28.3333333,13.9341463 C28.3333333,14.4582656 27.8983333,14.8826558 27.3611111,14.8826558 L27.3611111,14.8826558 Z" id="Fill-26" fill="#213D68" mask="url(#mask-4)"></path>
            </g>
        </g>
    </g>
</svg>