<?xml version="1.0" encoding="UTF-8"?>
<svg width="50px" height="50px" viewBox="0 0 50 50" version="1.1" xmlns="http://www.w3.org/2000/svg" xmlns:xlink="http://www.w3.org/1999/xlink">
    <!-- Generator: Sketch 46.2 (44496) - http://www.bohemiancoding.com/sketch -->
    <title>Illustration/Timeoff</title>
    <desc>Created with Sketch.</desc>
    <defs></defs>
    <g id="Symbols" stroke="none" stroke-width="1" fill="none" fill-rule="evenodd">
        <g id="Illustration/Timeoff">
            <g id="Timeoff-icon" transform="translate(0.000000, 7.000000)">
                <path d="M2.33333333,33.3646 L37.1746667,33.3646 L37.1746667,2.94726667 L2.33333333,2.94726667 L2.33333333,33.3646 Z M38.3413333,35.6979333 L1.16666667,35.6979333 C0.522,35.6979333 0,35.1759333 0,34.5312667 L0,1.78126667 C0,1.1366 0.522,0.6146 1.16666667,0.6146 L38.3413333,0.613933333 L38.3413333,0.6146 C38.986,0.6146 39.508,1.1366 39.508,1.78126667 L39.508,34.5312667 C39.508,35.1759333 38.986,35.6979333 38.3413333,35.6979333 L38.3413333,35.6979333 Z" id="Fill-1" fill="#213D68"></path>
                <polyline id="Fill-3" fill="#37B375" points="38.3411333 1.78126667 38.3411333 1.7806 38.3411333 1.78126667 38.3411333 8.24926667 1.16646667 8.24926667 1.16646667 1.78126667 1.16646667 1.7806 38.3411333 1.7806"></polyline>
                <path d="M2.33333333,7.0826 L37.1746667,7.0826 L37.1746667,2.94726667 L2.33333333,2.94726667 L2.33333333,7.0826 Z M38.3413333,9.41593333 L1.16666667,9.41593333 C0.522,9.41593333 0,8.89393333 0,8.24926667 L0,1.78126667 C0,1.1366 0.522,0.6146 1.16666667,0.6146 L38.3413333,0.613933333 L38.3413333,0.6146 C38.986,0.6146 39.508,1.1366 39.508,1.78126667 L39.508,8.24926667 C39.508,8.89393333 38.986,9.41593333 38.3413333,9.41593333 L38.3413333,9.41593333 Z" id="Fill-4" fill="#213D68"></path>
                <path d="M38.3411333,9.416 L1.16646667,9.416 C0.5218,9.416 -0.0002,8.894 -0.0002,8.24933333 C-0.0002,7.60466667 0.5218,7.08266667 1.16646667,7.08266667 L38.3411333,7.08266667 C38.9858,7.08266667 39.5078,7.60466667 39.5078,8.24933333 C39.5078,8.894 38.9858,9.416 38.3411333,9.416" id="Fill-5" fill="#213D68"></path>
                <path d="M38.3411333,22.5566667 L1.16646667,22.5566667 C0.5218,22.5566667 -0.0002,22.0346667 -0.0002,21.39 C-0.0002,20.7453333 0.5218,20.2233333 1.16646667,20.2233333 L38.3411333,20.2233333 C38.9858,20.2233333 39.5078,20.7453333 39.5078,21.39 C39.5078,22.0346667 38.9858,22.5566667 38.3411333,22.5566667" id="Fill-6" fill="#213D68"></path>
                <path d="M13.5586,35.6972667 C12.9139333,35.6972667 12.3919333,35.1752667 12.3919333,34.5306 L12.3919333,8.24926667 C12.3919333,7.6046 12.9139333,7.0826 13.5586,7.0826 C14.2032667,7.0826 14.7252667,7.6046 14.7252667,8.24926667 L14.7252667,34.5306 C14.7252667,35.1752667 14.2032667,35.6972667 13.5586,35.6972667" id="Fill-7" fill="#213D68"></path>
                <path d="M25.9498667,35.6972667 C25.3052,35.6972667 24.7832,35.1752667 24.7832,34.5306 L24.7832,8.24926667 C24.7832,7.6046 25.3052,7.0826 25.9498667,7.0826 C26.5945333,7.0826 27.1165333,7.6046 27.1165333,8.24926667 L27.1165333,34.5306 C27.1165333,35.1752667 26.5945333,35.6972667 25.9498667,35.6972667" id="Fill-8" fill="#213D68"></path>
                <path d="M32.1452,14.5364667 C31.9898667,14.5364667 31.8625333,14.6631333 31.8625333,14.8198 C31.8625333,14.9751333 31.9898667,15.1024667 32.1452,15.1024667 C32.3012,15.1024667 32.4285333,14.9751333 32.4285333,14.8198 C32.4285333,14.6631333 32.3012,14.5364667 32.1452,14.5364667 M32.1452,16.8698 C31.0152,16.8698 30.0952,15.9498 30.0952,14.8198 C30.0952,13.6891333 31.0152,12.7691333 32.1452,12.7691333 C33.2758667,12.7691333 34.1958667,13.6891333 34.1958667,14.8198 C34.1958667,15.9498 33.2758667,16.8698 32.1452,16.8698" id="Fill-11" fill="#213D68"></path>
                <path d="M19.7539333,14.5364667 C19.5986,14.5364667 19.4712667,14.6631333 19.4712667,14.8198 C19.4712667,14.9751333 19.5986,15.1024667 19.7539333,15.1024667 C19.9099333,15.1024667 20.0372667,14.9751333 20.0372667,14.8198 C20.0372667,14.6631333 19.9099333,14.5364667 19.7539333,14.5364667 M19.7539333,16.8698 C18.6239333,16.8698 17.7039333,15.9498 17.7039333,14.8198 C17.7039333,13.6891333 18.6239333,12.7691333 19.7539333,12.7691333 C20.8846,12.7691333 21.8046,13.6891333 21.8046,14.8198 C21.8046,15.9498 20.8846,16.8698 19.7539333,16.8698" id="Fill-12" fill="#213D68"></path>
                <path d="M7.3034,14.5364667 C7.1474,14.5364667 7.02006667,14.6631333 7.02006667,14.8198 C7.02006667,14.9751333 7.1474,15.1024667 7.3034,15.1024667 C7.45873333,15.1024667 7.58606667,14.9751333 7.58606667,14.8198 C7.58606667,14.6631333 7.45873333,14.5364667 7.3034,14.5364667 M7.3034,16.8698 C6.17273333,16.8698 5.25273333,15.9498 5.25273333,14.8198 C5.25273333,13.6891333 6.17273333,12.7691333 7.3034,12.7691333 C8.4334,12.7691333 9.3534,13.6891333 9.3534,14.8198 C9.3534,15.9498 8.4334,16.8698 7.3034,16.8698" id="Fill-13" fill="#213D68"></path>
                <path d="M7.3034,27.6777333 C7.1474,27.6777333 7.02006667,27.8044 7.02006667,27.9604 C7.02006667,28.1164 7.1474,28.2437333 7.3034,28.2437333 C7.45873333,28.2437333 7.58606667,28.1164 7.58606667,27.9604 C7.58606667,27.8044 7.45873333,27.6777333 7.3034,27.6777333 M7.3034,30.0110667 C6.17273333,30.0110667 5.25273333,29.0910667 5.25273333,27.9604 C5.25273333,26.8304 6.17273333,25.9104 7.3034,25.9104 C8.4334,25.9104 9.3534,26.8304 9.3534,27.9604 C9.3534,29.0910667 8.4334,30.0110667 7.3034,30.0110667" id="Fill-14" fill="#213D68"></path>
            </g>
        </g>
    </g>
</svg>